<svg width="254" height="152" viewBox="0 0 254 152" fill="none" xmlns="http://www.w3.org/2000/svg">
<rect x="0.5" y="0.5" width="253" height="151" fill="white"/>
<path d="M143 60.4444V35.5556C143 33.6 141.4 32 139.444 32H114.556C112.6 32 111 33.6 111 35.5556V60.4444C111 62.4 112.6 64 114.556 64H139.444C141.4 64 143 62.4 143 60.4444ZM120.778 50.6667L125.222 56.0178L131.444 48L139.444 58.6667H114.556L120.778 50.6667Z" fill="#C8C8C8"/>
<path d="M48.8846 85.06H49.7106L53.8406 95H52.8046L51.5166 91.892H47.0506L45.7766 95H44.7266L48.8846 85.06ZM51.2926 91.122L49.2906 86.208L47.2606 91.122H51.2926ZM58.7095 88.546C58.0749 88.5647 57.5149 88.742 57.0295 89.078C56.5535 89.414 56.2175 89.876 56.0215 90.464V95H55.0695V87.706H55.9655V89.456C56.2175 88.9427 56.5489 88.5273 56.9595 88.21C57.3795 87.8927 57.8229 87.7153 58.2895 87.678C58.3829 87.6687 58.4622 87.664 58.5275 87.664C58.5929 87.664 58.6535 87.6687 58.7095 87.678V88.546ZM63.6177 88.546C62.9831 88.5647 62.4231 88.742 61.9377 89.078C61.4617 89.414 61.1257 89.876 60.9297 90.464V95H59.9777V87.706H60.8737V89.456C61.1257 88.9427 61.4571 88.5273 61.8677 88.21C62.2877 87.8927 62.7311 87.7153 63.1977 87.678C63.2911 87.6687 63.3704 87.664 63.4357 87.664C63.5011 87.664 63.5617 87.6687 63.6177 87.678V88.546ZM64.2706 92.9C64.2706 92.452 64.4013 92.0647 64.6626 91.738C64.9239 91.402 65.2833 91.1407 65.7406 90.954C66.2073 90.7673 66.7439 90.674 67.3506 90.674C67.7053 90.674 68.0739 90.7067 68.4566 90.772C68.8393 90.828 69.1799 90.9073 69.4786 91.01V90.394C69.4786 89.778 69.2966 89.288 68.9326 88.924C68.5686 88.56 68.0646 88.378 67.4206 88.378C67.0379 88.378 66.6553 88.4527 66.2726 88.602C65.8899 88.742 65.4933 88.952 65.0826 89.232L64.7186 88.56C65.1946 88.2333 65.6613 87.9907 66.1186 87.832C66.5759 87.664 67.0426 87.58 67.5186 87.58C68.4146 87.58 69.1239 87.8367 69.6466 88.35C70.1693 88.8633 70.4306 89.5727 70.4306 90.478V93.852C70.4306 94.104 70.5473 94.2347 70.7806 94.244V95C70.5753 95.028 70.4306 95.0373 70.3466 95.028C70.1133 95.0187 69.9359 94.944 69.8146 94.804C69.6933 94.664 69.6279 94.5147 69.6186 94.356L69.6046 93.824C69.2779 94.244 68.8533 94.5707 68.3306 94.804C67.8079 95.028 67.2759 95.14 66.7346 95.14C66.2586 95.14 65.8339 95.042 65.4606 94.846C65.0873 94.6407 64.7933 94.37 64.5786 94.034C64.3733 93.6887 64.2706 93.3107 64.2706 92.9ZM69.1566 93.46C69.3713 93.208 69.4786 92.9747 69.4786 92.76V91.696C68.8346 91.444 68.1626 91.318 67.4626 91.318C66.7813 91.318 66.2306 91.4533 65.8106 91.724C65.3906 91.9947 65.1806 92.3633 65.1806 92.83C65.1806 93.2313 65.3346 93.5953 65.6426 93.922C65.9599 94.2487 66.3986 94.412 66.9586 94.412C67.4159 94.412 67.8406 94.3233 68.2326 94.146C68.6339 93.9687 68.9419 93.74 69.1566 93.46ZM74.8815 95.14C74.2842 95.14 73.7288 95.042 73.2155 94.846C72.7115 94.6407 72.2682 94.342 71.8855 93.95L72.2775 93.278C72.6882 93.6607 73.0988 93.9407 73.5095 94.118C73.9295 94.286 74.3728 94.37 74.8395 94.37C75.3995 94.37 75.8568 94.258 76.2115 94.034C76.5755 93.8007 76.7575 93.4693 76.7575 93.04C76.7575 92.7507 76.6688 92.5313 76.4915 92.382C76.3235 92.2233 76.0762 92.0973 75.7495 92.004C75.4322 91.9107 75.0495 91.8033 74.6015 91.682C74.0975 91.542 73.6728 91.3973 73.3275 91.248C72.9915 91.0893 72.7348 90.8933 72.5575 90.66C72.3895 90.4173 72.3055 90.1047 72.3055 89.722C72.3055 89.2553 72.4222 88.8633 72.6555 88.546C72.8982 88.2287 73.2248 87.9907 73.6355 87.832C74.0555 87.664 74.5222 87.58 75.0355 87.58C75.5955 87.58 76.0902 87.6687 76.5195 87.846C76.9488 88.0233 77.2988 88.2707 77.5695 88.588L77.1075 89.232C76.8555 88.9333 76.5428 88.714 76.1695 88.574C75.8055 88.4247 75.4088 88.35 74.9795 88.35C74.6808 88.35 74.3962 88.392 74.1255 88.476C73.8548 88.5507 73.6308 88.6813 73.4535 88.868C73.2855 89.0453 73.2015 89.2927 73.2015 89.61C73.2015 90.002 73.3462 90.2727 73.6355 90.422C73.9248 90.5713 74.3635 90.73 74.9515 90.898C75.5022 91.0473 75.9828 91.1967 76.3935 91.346C76.8042 91.4953 77.1215 91.696 77.3455 91.948C77.5695 92.1907 77.6815 92.5313 77.6815 92.97C77.6815 93.6513 77.4248 94.1833 76.9115 94.566C76.3982 94.9487 75.7215 95.14 74.8815 95.14ZM82.7551 94.65C82.6431 94.6967 82.4377 94.7807 82.1391 94.902C81.8404 95.0233 81.4951 95.084 81.1031 95.084C80.6924 95.084 80.3331 94.9673 80.0251 94.734C79.7171 94.5007 79.5631 94.1507 79.5631 93.684V88.462H78.5551V87.706H79.5631V85.242H80.5151V87.706H82.1951V88.462H80.5151V93.418C80.5337 93.6887 80.6271 93.8893 80.7951 94.02C80.9724 94.1413 81.1731 94.202 81.3971 94.202C81.6584 94.202 81.8917 94.16 82.0971 94.076C82.3117 93.9827 82.4471 93.9173 82.5031 93.88L82.7551 94.65ZM87.5845 88.546C86.9499 88.5647 86.3899 88.742 85.9045 89.078C85.4285 89.414 85.0925 89.876 84.8965 90.464V95H83.9445V87.706H84.8405V89.456C85.0925 88.9427 85.4239 88.5273 85.8345 88.21C86.2545 87.8927 86.6979 87.7153 87.1645 87.678C87.2579 87.6687 87.3372 87.664 87.4025 87.664C87.4679 87.664 87.5285 87.6687 87.5845 87.678V88.546ZM91.784 95.14C91.084 95.14 90.4587 94.9673 89.908 94.622C89.3573 94.2767 88.9233 93.8147 88.606 93.236C88.2887 92.6573 88.13 92.0227 88.13 91.332C88.13 90.6507 88.284 90.0253 88.592 89.456C88.9093 88.8867 89.3433 88.434 89.894 88.098C90.4447 87.7527 91.07 87.58 91.77 87.58C92.4887 87.58 93.1187 87.7527 93.66 88.098C94.2013 88.4433 94.6213 88.9007 94.92 89.47C95.228 90.03 95.382 90.646 95.382 91.318C95.382 91.4673 95.3773 91.5933 95.368 91.696H89.124C89.1707 92.2187 89.32 92.6853 89.572 93.096C89.824 93.4973 90.146 93.8193 90.538 94.062C90.93 94.2953 91.3593 94.412 91.826 94.412C92.302 94.412 92.75 94.2907 93.17 94.048C93.59 93.8053 93.8887 93.488 94.066 93.096L94.892 93.32C94.7427 93.6747 94.5093 93.992 94.192 94.272C93.884 94.5427 93.5247 94.7573 93.114 94.916C92.7033 95.0653 92.26 95.14 91.784 95.14ZM89.096 91.01H94.486C94.4487 90.4873 94.304 90.0253 94.052 89.624C93.8 89.2133 93.478 88.896 93.086 88.672C92.694 88.4387 92.26 88.322 91.784 88.322C91.308 88.322 90.874 88.4387 90.482 88.672C90.09 88.896 89.768 89.2133 89.516 89.624C89.2733 90.0253 89.1333 90.4873 89.096 91.01ZM104.143 95.14C103.536 95.14 102.99 94.9813 102.505 94.664C102.029 94.3467 101.651 93.9547 101.371 93.488V97.982H100.419V87.706H101.273V89.12C101.562 88.6627 101.945 88.294 102.421 88.014C102.906 87.7247 103.429 87.58 103.989 87.58C104.493 87.58 104.955 87.6873 105.375 87.902C105.795 88.1073 106.159 88.3873 106.467 88.742C106.784 89.0967 107.027 89.5027 107.195 89.96C107.363 90.408 107.447 90.8747 107.447 91.36C107.447 92.0413 107.307 92.6713 107.027 93.25C106.756 93.8193 106.369 94.2767 105.865 94.622C105.37 94.9673 104.796 95.14 104.143 95.14ZM103.877 94.3C104.409 94.3 104.866 94.16 105.249 93.88C105.641 93.5907 105.944 93.222 106.159 92.774C106.374 92.326 106.481 91.8547 106.481 91.36C106.481 90.8373 106.36 90.352 106.117 89.904C105.874 89.456 105.548 89.0967 105.137 88.826C104.736 88.5553 104.278 88.42 103.765 88.42C103.448 88.42 103.112 88.504 102.757 88.672C102.412 88.8307 102.104 89.05 101.833 89.33C101.572 89.6007 101.418 89.8993 101.371 90.226V92.466C101.586 92.9793 101.922 93.4133 102.379 93.768C102.836 94.1227 103.336 94.3 103.877 94.3ZM108.472 92.9C108.472 92.452 108.602 92.0647 108.864 91.738C109.125 91.402 109.484 91.1407 109.942 90.954C110.408 90.7673 110.945 90.674 111.552 90.674C111.906 90.674 112.275 90.7067 112.658 90.772C113.04 90.828 113.381 90.9073 113.68 91.01V90.394C113.68 89.778 113.498 89.288 113.134 88.924C112.77 88.56 112.266 88.378 111.622 88.378C111.239 88.378 110.856 88.4527 110.474 88.602C110.091 88.742 109.694 88.952 109.284 89.232L108.92 88.56C109.396 88.2333 109.862 87.9907 110.32 87.832C110.777 87.664 111.244 87.58 111.72 87.58C112.616 87.58 113.325 87.8367 113.848 88.35C114.37 88.8633 114.632 89.5727 114.632 90.478V93.852C114.632 94.104 114.748 94.2347 114.982 94.244V95C114.776 95.028 114.632 95.0373 114.548 95.028C114.314 95.0187 114.137 94.944 114.016 94.804C113.894 94.664 113.829 94.5147 113.82 94.356L113.806 93.824C113.479 94.244 113.054 94.5707 112.532 94.804C112.009 95.028 111.477 95.14 110.936 95.14C110.46 95.14 110.035 95.042 109.662 94.846C109.288 94.6407 108.994 94.37 108.78 94.034C108.574 93.6887 108.472 93.3107 108.472 92.9ZM113.358 93.46C113.572 93.208 113.68 92.9747 113.68 92.76V91.696C113.036 91.444 112.364 91.318 111.664 91.318C110.982 91.318 110.432 91.4533 110.012 91.724C109.592 91.9947 109.382 92.3633 109.382 92.83C109.382 93.2313 109.536 93.5953 109.844 93.922C110.161 94.2487 110.6 94.412 111.16 94.412C111.617 94.412 112.042 94.3233 112.434 94.146C112.835 93.9687 113.143 93.74 113.358 93.46ZM120.329 88.546C119.694 88.5647 119.134 88.742 118.649 89.078C118.173 89.414 117.837 89.876 117.641 90.464V95H116.689V87.706H117.585V89.456C117.837 88.9427 118.168 88.5273 118.579 88.21C118.999 87.8927 119.442 87.7153 119.909 87.678C120.002 87.6687 120.081 87.664 120.147 87.664C120.212 87.664 120.273 87.6687 120.329 87.678V88.546ZM120.982 92.9C120.982 92.452 121.112 92.0647 121.374 91.738C121.635 91.402 121.994 91.1407 122.452 90.954C122.918 90.7673 123.455 90.674 124.062 90.674C124.416 90.674 124.785 90.7067 125.168 90.772C125.55 90.828 125.891 90.9073 126.19 91.01V90.394C126.19 89.778 126.008 89.288 125.644 88.924C125.28 88.56 124.776 88.378 124.132 88.378C123.749 88.378 123.366 88.4527 122.984 88.602C122.601 88.742 122.204 88.952 121.794 89.232L121.43 88.56C121.906 88.2333 122.372 87.9907 122.83 87.832C123.287 87.664 123.754 87.58 124.23 87.58C125.126 87.58 125.835 87.8367 126.358 88.35C126.88 88.8633 127.142 89.5727 127.142 90.478V93.852C127.142 94.104 127.258 94.2347 127.492 94.244V95C127.286 95.028 127.142 95.0373 127.058 95.028C126.824 95.0187 126.647 94.944 126.526 94.804C126.404 94.664 126.339 94.5147 126.33 94.356L126.316 93.824C125.989 94.244 125.564 94.5707 125.042 94.804C124.519 95.028 123.987 95.14 123.446 95.14C122.97 95.14 122.545 95.042 122.172 94.846C121.798 94.6407 121.504 94.37 121.29 94.034C121.084 93.6887 120.982 93.3107 120.982 92.9ZM125.868 93.46C126.082 93.208 126.19 92.9747 126.19 92.76V91.696C125.546 91.444 124.874 91.318 124.174 91.318C123.492 91.318 122.942 91.4533 122.522 91.724C122.102 91.9947 121.892 92.3633 121.892 92.83C121.892 93.2313 122.046 93.5953 122.354 93.922C122.671 94.2487 123.11 94.412 123.67 94.412C124.127 94.412 124.552 94.3233 124.944 94.146C125.345 93.9687 125.653 93.74 125.868 93.46ZM132.179 92.9C132.179 92.452 132.309 92.0647 132.571 91.738C132.832 91.402 133.191 91.1407 133.649 90.954C134.115 90.7673 134.652 90.674 135.259 90.674C135.613 90.674 135.982 90.7067 136.365 90.772C136.747 90.828 137.088 90.9073 137.387 91.01V90.394C137.387 89.778 137.205 89.288 136.841 88.924C136.477 88.56 135.973 88.378 135.329 88.378C134.946 88.378 134.563 88.4527 134.181 88.602C133.798 88.742 133.401 88.952 132.991 89.232L132.627 88.56C133.103 88.2333 133.569 87.9907 134.027 87.832C134.484 87.664 134.951 87.58 135.427 87.58C136.323 87.58 137.032 87.8367 137.555 88.35C138.077 88.8633 138.339 89.5727 138.339 90.478V93.852C138.339 94.104 138.455 94.2347 138.689 94.244V95C138.483 95.028 138.339 95.0373 138.255 95.028C138.021 95.0187 137.844 94.944 137.723 94.804C137.601 94.664 137.536 94.5147 137.527 94.356L137.513 93.824C137.186 94.244 136.761 94.5707 136.239 94.804C135.716 95.028 135.184 95.14 134.643 95.14C134.167 95.14 133.742 95.042 133.369 94.846C132.995 94.6407 132.701 94.37 132.487 94.034C132.281 93.6887 132.179 93.3107 132.179 92.9ZM137.065 93.46C137.279 93.208 137.387 92.9747 137.387 92.76V91.696C136.743 91.444 136.071 91.318 135.371 91.318C134.689 91.318 134.139 91.4533 133.719 91.724C133.299 91.9947 133.089 92.3633 133.089 92.83C133.089 93.2313 133.243 93.5953 133.551 93.922C133.868 94.2487 134.307 94.412 134.867 94.412C135.324 94.412 135.749 94.3233 136.141 94.146C136.542 93.9687 136.85 93.74 137.065 93.46ZM143.322 95.098C142.818 95.098 142.356 94.9953 141.936 94.79C141.525 94.5847 141.166 94.3093 140.858 93.964C140.559 93.6093 140.326 93.208 140.158 92.76C139.99 92.312 139.906 91.85 139.906 91.374C139.906 90.6927 140.05 90.0673 140.34 89.498C140.629 88.9193 141.026 88.4573 141.53 88.112C142.043 87.7573 142.631 87.58 143.294 87.58C143.919 87.58 144.46 87.7387 144.918 88.056C145.384 88.3733 145.776 88.7653 146.094 89.232V87.706H146.948V95.028C146.948 95.7093 146.784 96.2787 146.458 96.736C146.131 97.1933 145.697 97.5387 145.156 97.772C144.614 98.0053 144.022 98.122 143.378 98.122C142.538 98.122 141.861 97.9727 141.348 97.674C140.844 97.3753 140.428 96.974 140.102 96.47L140.69 96.008C140.979 96.4653 141.362 96.806 141.838 97.03C142.323 97.254 142.836 97.366 143.378 97.366C143.854 97.366 144.288 97.2773 144.68 97.1C145.081 96.932 145.398 96.6753 145.632 96.33C145.874 95.9847 145.996 95.5507 145.996 95.028V93.586C145.716 94.0433 145.333 94.412 144.848 94.692C144.362 94.9627 143.854 95.098 143.322 95.098ZM143.588 94.3C143.97 94.3 144.334 94.2113 144.68 94.034C145.025 93.8567 145.314 93.6327 145.548 93.362C145.79 93.082 145.94 92.7927 145.996 92.494V90.24C145.856 89.8853 145.655 89.5727 145.394 89.302C145.132 89.022 144.834 88.8073 144.498 88.658C144.162 88.4993 143.821 88.42 143.476 88.42C142.934 88.42 142.468 88.5693 142.076 88.868C141.693 89.1573 141.394 89.5307 141.18 89.988C140.974 90.436 140.872 90.9027 140.872 91.388C140.872 91.9107 140.993 92.396 141.236 92.844C141.478 93.2827 141.805 93.6373 142.216 93.908C142.626 94.1693 143.084 94.3 143.588 94.3ZM152.69 88.546C152.055 88.5647 151.495 88.742 151.01 89.078C150.534 89.414 150.198 89.876 150.002 90.464V95H149.05V87.706H149.946V89.456C150.198 88.9427 150.529 88.5273 150.94 88.21C151.36 87.8927 151.803 87.7153 152.27 87.678C152.363 87.6687 152.443 87.664 152.508 87.664C152.573 87.664 152.634 87.6687 152.69 87.678V88.546ZM156.889 95.14C156.189 95.14 155.564 94.9673 155.013 94.622C154.463 94.2767 154.029 93.8147 153.711 93.236C153.394 92.6573 153.235 92.0227 153.235 91.332C153.235 90.6507 153.389 90.0253 153.697 89.456C154.015 88.8867 154.449 88.434 154.999 88.098C155.55 87.7527 156.175 87.58 156.875 87.58C157.594 87.58 158.224 87.7527 158.765 88.098C159.307 88.4433 159.727 88.9007 160.025 89.47C160.333 90.03 160.487 90.646 160.487 91.318C160.487 91.4673 160.483 91.5933 160.473 91.696H154.229C154.276 92.2187 154.425 92.6853 154.677 93.096C154.929 93.4973 155.251 93.8193 155.643 94.062C156.035 94.2953 156.465 94.412 156.931 94.412C157.407 94.412 157.855 94.2907 158.275 94.048C158.695 93.8053 158.994 93.488 159.171 93.096L159.997 93.32C159.848 93.6747 159.615 93.992 159.297 94.272C158.989 94.5427 158.63 94.7573 158.219 94.916C157.809 95.0653 157.365 95.14 156.889 95.14ZM154.201 91.01H159.591C159.554 90.4873 159.409 90.0253 159.157 89.624C158.905 89.2133 158.583 88.896 158.191 88.672C157.799 88.4387 157.365 88.322 156.889 88.322C156.413 88.322 155.979 88.4387 155.587 88.672C155.195 88.896 154.873 89.2133 154.621 89.624C154.379 90.0253 154.239 90.4873 154.201 91.01ZM164.882 95.098C164.378 95.098 163.916 94.9953 163.496 94.79C163.086 94.5847 162.726 94.3093 162.418 93.964C162.12 93.6093 161.886 93.208 161.718 92.76C161.55 92.312 161.466 91.85 161.466 91.374C161.466 90.6927 161.611 90.0673 161.9 89.498C162.19 88.9193 162.586 88.4573 163.09 88.112C163.604 87.7573 164.192 87.58 164.854 87.58C165.48 87.58 166.021 87.7387 166.478 88.056C166.945 88.3733 167.337 88.7653 167.654 89.232V87.706H168.508V95.028C168.508 95.7093 168.345 96.2787 168.018 96.736C167.692 97.1933 167.258 97.5387 166.716 97.772C166.175 98.0053 165.582 98.122 164.938 98.122C164.098 98.122 163.422 97.9727 162.908 97.674C162.404 97.3753 161.989 96.974 161.662 96.47L162.25 96.008C162.54 96.4653 162.922 96.806 163.398 97.03C163.884 97.254 164.397 97.366 164.938 97.366C165.414 97.366 165.848 97.2773 166.24 97.1C166.642 96.932 166.959 96.6753 167.192 96.33C167.435 95.9847 167.556 95.5507 167.556 95.028V93.586C167.276 94.0433 166.894 94.412 166.408 94.692C165.923 94.9627 165.414 95.098 164.882 95.098ZM165.148 94.3C165.531 94.3 165.895 94.2113 166.24 94.034C166.586 93.8567 166.875 93.6327 167.108 93.362C167.351 93.082 167.5 92.7927 167.556 92.494V90.24C167.416 89.8853 167.216 89.5727 166.954 89.302C166.693 89.022 166.394 88.8073 166.058 88.658C165.722 88.4993 165.382 88.42 165.036 88.42C164.495 88.42 164.028 88.5693 163.636 88.868C163.254 89.1573 162.955 89.5307 162.74 89.988C162.535 90.436 162.432 90.9027 162.432 91.388C162.432 91.9107 162.554 92.396 162.796 92.844C163.039 93.2827 163.366 93.6373 163.776 93.908C164.187 94.1693 164.644 94.3 165.148 94.3ZM170.023 92.9C170.023 92.452 170.153 92.0647 170.415 91.738C170.676 91.402 171.035 91.1407 171.493 90.954C171.959 90.7673 172.496 90.674 173.103 90.674C173.457 90.674 173.826 90.7067 174.209 90.772C174.591 90.828 174.932 90.9073 175.231 91.01V90.394C175.231 89.778 175.049 89.288 174.685 88.924C174.321 88.56 173.817 88.378 173.173 88.378C172.79 88.378 172.407 88.4527 172.025 88.602C171.642 88.742 171.245 88.952 170.835 89.232L170.471 88.56C170.947 88.2333 171.413 87.9907 171.871 87.832C172.328 87.664 172.795 87.58 173.271 87.58C174.167 87.58 174.876 87.8367 175.399 88.35C175.921 88.8633 176.183 89.5727 176.183 90.478V93.852C176.183 94.104 176.299 94.2347 176.533 94.244V95C176.327 95.028 176.183 95.0373 176.099 95.028C175.865 95.0187 175.688 94.944 175.567 94.804C175.445 94.664 175.38 94.5147 175.371 94.356L175.357 93.824C175.03 94.244 174.605 94.5707 174.083 94.804C173.56 95.028 173.028 95.14 172.487 95.14C172.011 95.14 171.586 95.042 171.213 94.846C170.839 94.6407 170.545 94.37 170.331 94.034C170.125 93.6887 170.023 93.3107 170.023 92.9ZM174.909 93.46C175.123 93.208 175.231 92.9747 175.231 92.76V91.696C174.587 91.444 173.915 91.318 173.215 91.318C172.533 91.318 171.983 91.4533 171.563 91.724C171.143 91.9947 170.933 92.3633 170.933 92.83C170.933 93.2313 171.087 93.5953 171.395 93.922C171.712 94.2487 172.151 94.412 172.711 94.412C173.168 94.412 173.593 94.3233 173.985 94.146C174.386 93.9687 174.694 93.74 174.909 93.46ZM181.879 88.546C181.245 88.5647 180.685 88.742 180.199 89.078C179.723 89.414 179.387 89.876 179.191 90.464V95H178.239V87.706H179.135V89.456C179.387 88.9427 179.719 88.5273 180.129 88.21C180.549 87.8927 180.993 87.7153 181.459 87.678C181.553 87.6687 181.632 87.664 181.697 87.664C181.763 87.664 181.823 87.6687 181.879 87.678V88.546ZM186.318 91.99V87.706H187.27V91.822C187.27 93.474 187.835 94.3 188.964 94.3C189.524 94.3 190.047 94.118 190.532 93.754C191.027 93.39 191.381 92.9047 191.596 92.298V87.706H192.548V93.852C192.548 94.104 192.66 94.2347 192.884 94.244V95C192.772 95.0187 192.683 95.028 192.618 95.028C192.562 95.028 192.501 95.028 192.436 95.028C192.24 95.0093 192.072 94.9347 191.932 94.804C191.801 94.6733 191.736 94.5147 191.736 94.328L191.708 93.348C191.391 93.9173 190.957 94.3607 190.406 94.678C189.865 94.986 189.277 95.14 188.642 95.14C187.093 95.14 186.318 94.09 186.318 91.99ZM200.832 95H199.88V90.926C199.88 90.0673 199.75 89.442 199.488 89.05C199.236 88.6487 198.844 88.448 198.312 88.448C197.939 88.448 197.57 88.5413 197.206 88.728C196.842 88.9053 196.52 89.1527 196.24 89.47C195.97 89.778 195.774 90.1327 195.652 90.534V95H194.7V87.706H195.568V89.358C195.858 88.826 196.282 88.3967 196.842 88.07C197.402 87.7433 198.009 87.58 198.662 87.58C199.204 87.58 199.633 87.7107 199.95 87.972C200.268 88.224 200.492 88.588 200.622 89.064C200.762 89.5307 200.832 90.086 200.832 90.73V95ZM202.274 92.9C202.274 92.452 202.405 92.0647 202.667 91.738C202.928 91.402 203.287 91.1407 203.745 90.954C204.211 90.7673 204.748 90.674 205.355 90.674C205.709 90.674 206.078 90.7067 206.461 90.772C206.843 90.828 207.184 90.9073 207.483 91.01V90.394C207.483 89.778 207.301 89.288 206.937 88.924C206.573 88.56 206.069 88.378 205.425 88.378C205.042 88.378 204.659 88.4527 204.277 88.602C203.894 88.742 203.497 88.952 203.087 89.232L202.723 88.56C203.199 88.2333 203.665 87.9907 204.123 87.832C204.58 87.664 205.047 87.58 205.523 87.58C206.419 87.58 207.128 87.8367 207.651 88.35C208.173 88.8633 208.435 89.5727 208.435 90.478V93.852C208.435 94.104 208.551 94.2347 208.785 94.244V95C208.579 95.028 208.435 95.0373 208.351 95.028C208.117 95.0187 207.94 94.944 207.819 94.804C207.697 94.664 207.632 94.5147 207.623 94.356L207.609 93.824C207.282 94.244 206.857 94.5707 206.335 94.804C205.812 95.028 205.28 95.14 204.739 95.14C204.263 95.14 203.838 95.042 203.465 94.846C203.091 94.6407 202.797 94.37 202.583 94.034C202.377 93.6887 202.274 93.3107 202.274 92.9ZM207.161 93.46C207.375 93.208 207.483 92.9747 207.483 92.76V91.696C206.839 91.444 206.167 91.318 205.467 91.318C204.785 91.318 204.235 91.4533 203.815 91.724C203.395 91.9947 203.185 92.3633 203.185 92.83C203.185 93.2313 203.339 93.5953 203.647 93.922C203.964 94.2487 204.403 94.412 204.963 94.412C205.42 94.412 205.845 94.3233 206.237 94.146C206.638 93.9687 206.946 93.74 207.161 93.46ZM48.5891 106.18V104.78H49.5411V106.18H48.5891ZM48.5891 115V107.706H49.5411V115H48.5891ZM62.4879 115H61.5359V110.926C61.5359 110.086 61.4006 109.465 61.1299 109.064C60.8592 108.653 60.4579 108.448 59.9259 108.448C59.3659 108.448 58.8712 108.644 58.4419 109.036C58.0126 109.428 57.7092 109.932 57.5319 110.548V115H56.5799V110.926C56.5799 110.067 56.4446 109.442 56.1739 109.05C55.9126 108.649 55.5159 108.448 54.9839 108.448C54.4332 108.448 53.9386 108.639 53.4999 109.022C53.0706 109.405 52.7672 109.909 52.5899 110.534V115H51.6379V107.706H52.5059V109.358C52.8046 108.798 53.1966 108.364 53.6819 108.056C54.1672 107.739 54.7039 107.58 55.2919 107.58C55.8986 107.58 56.3886 107.757 56.7619 108.112C57.1352 108.457 57.3639 108.905 57.4479 109.456C58.1199 108.205 59.0579 107.58 60.2619 107.58C61.0832 107.58 61.6572 107.869 61.9839 108.448C62.3199 109.017 62.4879 109.778 62.4879 110.73V115ZM63.9151 112.9C63.9151 112.452 64.0458 112.065 64.3071 111.738C64.5685 111.402 64.9278 111.141 65.3851 110.954C65.8518 110.767 66.3885 110.674 66.9951 110.674C67.3498 110.674 67.7185 110.707 68.1011 110.772C68.4838 110.828 68.8245 110.907 69.1231 111.01V110.394C69.1231 109.778 68.9411 109.288 68.5771 108.924C68.2131 108.56 67.7091 108.378 67.0651 108.378C66.6825 108.378 66.2998 108.453 65.9171 108.602C65.5345 108.742 65.1378 108.952 64.7271 109.232L64.3631 108.56C64.8391 108.233 65.3058 107.991 65.7631 107.832C66.2205 107.664 66.6871 107.58 67.1631 107.58C68.0591 107.58 68.7685 107.837 69.2911 108.35C69.8138 108.863 70.0751 109.573 70.0751 110.478V113.852C70.0751 114.104 70.1918 114.235 70.4251 114.244V115C70.2198 115.028 70.0751 115.037 69.9911 115.028C69.7578 115.019 69.5805 114.944 69.4591 114.804C69.3378 114.664 69.2725 114.515 69.2631 114.356L69.2491 113.824C68.9225 114.244 68.4978 114.571 67.9751 114.804C67.4525 115.028 66.9205 115.14 66.3791 115.14C65.9031 115.14 65.4785 115.042 65.1051 114.846C64.7318 114.641 64.4378 114.37 64.2231 114.034C64.0178 113.689 63.9151 113.311 63.9151 112.9ZM68.8011 113.46C69.0158 113.208 69.1231 112.975 69.1231 112.76V111.696C68.4791 111.444 67.8071 111.318 67.1071 111.318C66.4258 111.318 65.8751 111.453 65.4551 111.724C65.0351 111.995 64.8251 112.363 64.8251 112.83C64.8251 113.231 64.9791 113.595 65.2871 113.922C65.6045 114.249 66.0431 114.412 66.6031 114.412C67.0605 114.412 67.4851 114.323 67.8771 114.146C68.2785 113.969 68.5865 113.74 68.8011 113.46ZM75.058 115.098C74.554 115.098 74.092 114.995 73.672 114.79C73.2614 114.585 72.902 114.309 72.594 113.964C72.2954 113.609 72.062 113.208 71.894 112.76C71.726 112.312 71.642 111.85 71.642 111.374C71.642 110.693 71.7867 110.067 72.076 109.498C72.3654 108.919 72.762 108.457 73.266 108.112C73.7794 107.757 74.3674 107.58 75.03 107.58C75.6554 107.58 76.1967 107.739 76.654 108.056C77.1207 108.373 77.5127 108.765 77.83 109.232V107.706H78.684V115.028C78.684 115.709 78.5207 116.279 78.194 116.736C77.8674 117.193 77.4334 117.539 76.892 117.772C76.3507 118.005 75.758 118.122 75.114 118.122C74.274 118.122 73.5974 117.973 73.084 117.674C72.58 117.375 72.1647 116.974 71.838 116.47L72.426 116.008C72.7154 116.465 73.098 116.806 73.574 117.03C74.0594 117.254 74.5727 117.366 75.114 117.366C75.59 117.366 76.024 117.277 76.416 117.1C76.8174 116.932 77.1347 116.675 77.368 116.33C77.6107 115.985 77.732 115.551 77.732 115.028V113.586C77.452 114.043 77.0694 114.412 76.584 114.692C76.0987 114.963 75.59 115.098 75.058 115.098ZM75.324 114.3C75.7067 114.3 76.0707 114.211 76.416 114.034C76.7614 113.857 77.0507 113.633 77.284 113.362C77.5267 113.082 77.676 112.793 77.732 112.494V110.24C77.592 109.885 77.3914 109.573 77.13 109.302C76.8687 109.022 76.57 108.807 76.234 108.658C75.898 108.499 75.5574 108.42 75.212 108.42C74.6707 108.42 74.204 108.569 73.812 108.868C73.4294 109.157 73.1307 109.531 72.916 109.988C72.7107 110.436 72.608 110.903 72.608 111.388C72.608 111.911 72.7294 112.396 72.972 112.844C73.2147 113.283 73.5414 113.637 73.952 113.908C74.3627 114.169 74.82 114.3 75.324 114.3ZM83.9363 115.14C83.2363 115.14 82.611 114.967 82.0603 114.622C81.5097 114.277 81.0757 113.815 80.7583 113.236C80.441 112.657 80.2823 112.023 80.2823 111.332C80.2823 110.651 80.4363 110.025 80.7443 109.456C81.0617 108.887 81.4957 108.434 82.0463 108.098C82.597 107.753 83.2223 107.58 83.9223 107.58C84.641 107.58 85.271 107.753 85.8123 108.098C86.3537 108.443 86.7737 108.901 87.0723 109.47C87.3803 110.03 87.5343 110.646 87.5343 111.318C87.5343 111.467 87.5297 111.593 87.5203 111.696H81.2763C81.323 112.219 81.4723 112.685 81.7243 113.096C81.9763 113.497 82.2983 113.819 82.6903 114.062C83.0823 114.295 83.5117 114.412 83.9783 114.412C84.4543 114.412 84.9023 114.291 85.3223 114.048C85.7423 113.805 86.041 113.488 86.2183 113.096L87.0443 113.32C86.895 113.675 86.6617 113.992 86.3443 114.272C86.0363 114.543 85.677 114.757 85.2663 114.916C84.8557 115.065 84.4123 115.14 83.9363 115.14ZM81.2483 111.01H86.6383C86.601 110.487 86.4563 110.025 86.2043 109.624C85.9523 109.213 85.6303 108.896 85.2383 108.672C84.8463 108.439 84.4123 108.322 83.9363 108.322C83.4603 108.322 83.0263 108.439 82.6343 108.672C82.2423 108.896 81.9203 109.213 81.6683 109.624C81.4257 110.025 81.2857 110.487 81.2483 111.01ZM95.1351 115H94.1831V110.926C94.1831 110.067 94.0525 109.442 93.7911 109.05C93.5391 108.649 93.1471 108.448 92.6151 108.448C92.2418 108.448 91.8731 108.541 91.5091 108.728C91.1451 108.905 90.8231 109.153 90.5431 109.47C90.2725 109.778 90.0765 110.133 89.9551 110.534V115H89.0031V107.706H89.8711V109.358C90.1605 108.826 90.5851 108.397 91.1451 108.07C91.7051 107.743 92.3118 107.58 92.9651 107.58C93.5065 107.58 93.9358 107.711 94.2531 107.972C94.5705 108.224 94.7945 108.588 94.9251 109.064C95.0651 109.531 95.1351 110.086 95.1351 110.73V115ZM104.458 115.14C103.851 115.14 103.305 114.981 102.82 114.664C102.344 114.347 101.966 113.955 101.686 113.488V117.982H100.734V107.706H101.588V109.12C101.877 108.663 102.26 108.294 102.736 108.014C103.221 107.725 103.744 107.58 104.304 107.58C104.808 107.58 105.27 107.687 105.69 107.902C106.11 108.107 106.474 108.387 106.782 108.742C107.099 109.097 107.342 109.503 107.51 109.96C107.678 110.408 107.762 110.875 107.762 111.36C107.762 112.041 107.622 112.671 107.342 113.25C107.071 113.819 106.684 114.277 106.18 114.622C105.685 114.967 105.111 115.14 104.458 115.14ZM104.192 114.3C104.724 114.3 105.181 114.16 105.564 113.88C105.956 113.591 106.259 113.222 106.474 112.774C106.688 112.326 106.796 111.855 106.796 111.36C106.796 110.837 106.674 110.352 106.432 109.904C106.189 109.456 105.862 109.097 105.452 108.826C105.05 108.555 104.593 108.42 104.08 108.42C103.762 108.42 103.426 108.504 103.072 108.672C102.726 108.831 102.418 109.05 102.148 109.33C101.886 109.601 101.732 109.899 101.686 110.226V112.466C101.9 112.979 102.236 113.413 102.694 113.768C103.151 114.123 103.65 114.3 104.192 114.3ZM108.786 112.9C108.786 112.452 108.917 112.065 109.178 111.738C109.44 111.402 109.799 111.141 110.256 110.954C110.723 110.767 111.26 110.674 111.866 110.674C112.221 110.674 112.59 110.707 112.972 110.772C113.355 110.828 113.696 110.907 113.994 111.01V110.394C113.994 109.778 113.812 109.288 113.448 108.924C113.084 108.56 112.58 108.378 111.936 108.378C111.554 108.378 111.171 108.453 110.788 108.602C110.406 108.742 110.009 108.952 109.598 109.232L109.234 108.56C109.71 108.233 110.177 107.991 110.634 107.832C111.092 107.664 111.558 107.58 112.034 107.58C112.93 107.58 113.64 107.837 114.162 108.35C114.685 108.863 114.946 109.573 114.946 110.478V113.852C114.946 114.104 115.063 114.235 115.296 114.244V115C115.091 115.028 114.946 115.037 114.862 115.028C114.629 115.019 114.452 114.944 114.33 114.804C114.209 114.664 114.144 114.515 114.134 114.356L114.12 113.824C113.794 114.244 113.369 114.571 112.846 114.804C112.324 115.028 111.792 115.14 111.25 115.14C110.774 115.14 110.35 115.042 109.976 114.846C109.603 114.641 109.309 114.37 109.094 114.034C108.889 113.689 108.786 113.311 108.786 112.9ZM113.672 113.46C113.887 113.208 113.994 112.975 113.994 112.76V111.696C113.35 111.444 112.678 111.318 111.978 111.318C111.297 111.318 110.746 111.453 110.326 111.724C109.906 111.995 109.696 112.363 109.696 112.83C109.696 113.231 109.85 113.595 110.158 113.922C110.476 114.249 110.914 114.412 111.474 114.412C111.932 114.412 112.356 114.323 112.748 114.146C113.15 113.969 113.458 113.74 113.672 113.46ZM120.643 108.546C120.008 108.565 119.448 108.742 118.963 109.078C118.487 109.414 118.151 109.876 117.955 110.464V115H117.003V107.706H117.899V109.456C118.151 108.943 118.482 108.527 118.893 108.21C119.313 107.893 119.756 107.715 120.223 107.678C120.316 107.669 120.396 107.664 120.461 107.664C120.526 107.664 120.587 107.669 120.643 107.678V108.546ZM121.296 112.9C121.296 112.452 121.427 112.065 121.688 111.738C121.949 111.402 122.309 111.141 122.766 110.954C123.233 110.767 123.769 110.674 124.376 110.674C124.731 110.674 125.099 110.707 125.482 110.772C125.865 110.828 126.205 110.907 126.504 111.01V110.394C126.504 109.778 126.322 109.288 125.958 108.924C125.594 108.56 125.09 108.378 124.446 108.378C124.063 108.378 123.681 108.453 123.298 108.602C122.915 108.742 122.519 108.952 122.108 109.232L121.744 108.56C122.22 108.233 122.687 107.991 123.144 107.832C123.601 107.664 124.068 107.58 124.544 107.58C125.44 107.58 126.149 107.837 126.672 108.35C127.195 108.863 127.456 109.573 127.456 110.478V113.852C127.456 114.104 127.573 114.235 127.806 114.244V115C127.601 115.028 127.456 115.037 127.372 115.028C127.139 115.019 126.961 114.944 126.84 114.804C126.719 114.664 126.653 114.515 126.644 114.356L126.63 113.824C126.303 114.244 125.879 114.571 125.356 114.804C124.833 115.028 124.301 115.14 123.76 115.14C123.284 115.14 122.859 115.042 122.486 114.846C122.113 114.641 121.819 114.37 121.604 114.034C121.399 113.689 121.296 113.311 121.296 112.9ZM126.182 113.46C126.397 113.208 126.504 112.975 126.504 112.76V111.696C125.86 111.444 125.188 111.318 124.488 111.318C123.807 111.318 123.256 111.453 122.836 111.724C122.416 111.995 122.206 112.363 122.206 112.83C122.206 113.231 122.36 113.595 122.668 113.922C122.985 114.249 123.424 114.412 123.984 114.412C124.441 114.412 124.866 114.323 125.258 114.146C125.659 113.969 125.967 113.74 126.182 113.46ZM136.231 115.14C135.531 115.14 134.906 114.967 134.355 114.622C133.805 114.277 133.371 113.815 133.053 113.236C132.736 112.657 132.577 112.023 132.577 111.332C132.577 110.651 132.731 110.025 133.039 109.456C133.357 108.887 133.791 108.434 134.341 108.098C134.892 107.753 135.517 107.58 136.217 107.58C136.936 107.58 137.566 107.753 138.107 108.098C138.649 108.443 139.069 108.901 139.367 109.47C139.675 110.03 139.829 110.646 139.829 111.318C139.829 111.467 139.825 111.593 139.815 111.696H133.571C133.618 112.219 133.767 112.685 134.019 113.096C134.271 113.497 134.593 113.819 134.985 114.062C135.377 114.295 135.807 114.412 136.273 114.412C136.749 114.412 137.197 114.291 137.617 114.048C138.037 113.805 138.336 113.488 138.513 113.096L139.339 113.32C139.19 113.675 138.957 113.992 138.639 114.272C138.331 114.543 137.972 114.757 137.561 114.916C137.151 115.065 136.707 115.14 136.231 115.14ZM133.543 111.01H138.933C138.896 110.487 138.751 110.025 138.499 109.624C138.247 109.213 137.925 108.896 137.533 108.672C137.141 108.439 136.707 108.322 136.231 108.322C135.755 108.322 135.321 108.439 134.929 108.672C134.537 108.896 134.215 109.213 133.963 109.624C133.721 110.025 133.581 110.487 133.543 111.01ZM141.34 104.78H142.292V113.348C142.292 113.712 142.353 113.95 142.474 114.062C142.605 114.174 142.768 114.23 142.964 114.23C143.132 114.23 143.3 114.211 143.468 114.174C143.645 114.137 143.79 114.099 143.902 114.062L144.07 114.832C143.893 114.907 143.673 114.967 143.412 115.014C143.16 115.061 142.941 115.084 142.754 115.084C142.325 115.084 141.979 114.958 141.718 114.706C141.466 114.454 141.34 114.109 141.34 113.67V104.78ZM151.981 115.14C151.374 115.14 150.828 114.981 150.343 114.664C149.867 114.347 149.489 113.955 149.209 113.488V117.982H148.257V107.706H149.111V109.12C149.4 108.663 149.783 108.294 150.259 108.014C150.744 107.725 151.267 107.58 151.827 107.58C152.331 107.58 152.793 107.687 153.213 107.902C153.633 108.107 153.997 108.387 154.305 108.742C154.622 109.097 154.865 109.503 155.033 109.96C155.201 110.408 155.285 110.875 155.285 111.36C155.285 112.041 155.145 112.671 154.865 113.25C154.594 113.819 154.207 114.277 153.703 114.622C153.208 114.967 152.634 115.14 151.981 115.14ZM151.715 114.3C152.247 114.3 152.704 114.16 153.087 113.88C153.479 113.591 153.782 113.222 153.997 112.774C154.212 112.326 154.319 111.855 154.319 111.36C154.319 110.837 154.198 110.352 153.955 109.904C153.712 109.456 153.386 109.097 152.975 108.826C152.574 108.555 152.116 108.42 151.603 108.42C151.286 108.42 150.95 108.504 150.595 108.672C150.25 108.831 149.942 109.05 149.671 109.33C149.41 109.601 149.256 109.899 149.209 110.226V112.466C149.424 112.979 149.76 113.413 150.217 113.768C150.674 114.123 151.174 114.3 151.715 114.3ZM160.538 108.546C159.903 108.565 159.343 108.742 158.858 109.078C158.382 109.414 158.046 109.876 157.85 110.464V115H156.898V107.706H157.794V109.456C158.046 108.943 158.377 108.527 158.788 108.21C159.208 107.893 159.651 107.715 160.118 107.678C160.211 107.669 160.29 107.664 160.356 107.664C160.421 107.664 160.482 107.669 160.538 107.678V108.546ZM164.695 115.14C163.995 115.14 163.37 114.967 162.819 114.622C162.278 114.277 161.853 113.819 161.545 113.25C161.237 112.671 161.083 112.046 161.083 111.374C161.083 110.693 161.237 110.067 161.545 109.498C161.862 108.919 162.292 108.457 162.833 108.112C163.384 107.757 164.004 107.58 164.695 107.58C165.395 107.58 166.016 107.757 166.557 108.112C167.108 108.457 167.537 108.919 167.845 109.498C168.162 110.067 168.321 110.693 168.321 111.374C168.321 112.046 168.167 112.671 167.859 113.25C167.551 113.819 167.122 114.277 166.571 114.622C166.03 114.967 165.404 115.14 164.695 115.14ZM162.049 111.388C162.049 111.929 162.166 112.424 162.399 112.872C162.642 113.311 162.964 113.661 163.365 113.922C163.766 114.174 164.21 114.3 164.695 114.3C165.18 114.3 165.624 114.169 166.025 113.908C166.426 113.647 166.748 113.292 166.991 112.844C167.234 112.396 167.355 111.901 167.355 111.36C167.355 110.819 167.234 110.324 166.991 109.876C166.748 109.428 166.426 109.073 166.025 108.812C165.624 108.551 165.18 108.42 164.695 108.42C164.219 108.42 163.78 108.555 163.379 108.826C162.978 109.087 162.656 109.442 162.413 109.89C162.17 110.338 162.049 110.837 162.049 111.388ZM169.423 111.374C169.423 110.683 169.563 110.053 169.843 109.484C170.133 108.905 170.529 108.443 171.033 108.098C171.537 107.753 172.111 107.58 172.755 107.58C173.362 107.58 173.903 107.743 174.379 108.07C174.865 108.387 175.243 108.775 175.513 109.232V104.78H176.465V113.852C176.465 114.104 176.577 114.235 176.801 114.244V115C176.615 115.028 176.47 115.037 176.367 115.028C176.162 115.019 175.985 114.944 175.835 114.804C175.695 114.655 175.625 114.487 175.625 114.3V113.586C175.336 114.062 174.944 114.44 174.449 114.72C173.955 115 173.441 115.14 172.909 115.14C172.405 115.14 171.939 115.037 171.509 114.832C171.08 114.627 170.707 114.347 170.389 113.992C170.081 113.637 169.843 113.236 169.675 112.788C169.507 112.331 169.423 111.859 169.423 111.374ZM175.513 112.494V110.24C175.392 109.904 175.196 109.601 174.925 109.33C174.655 109.05 174.347 108.831 174.001 108.672C173.665 108.504 173.329 108.42 172.993 108.42C172.471 108.42 172.013 108.565 171.621 108.854C171.239 109.134 170.94 109.503 170.725 109.96C170.511 110.408 170.403 110.879 170.403 111.374C170.403 111.897 170.52 112.382 170.753 112.83C170.996 113.278 171.323 113.637 171.733 113.908C172.144 114.169 172.606 114.3 173.119 114.3C173.437 114.3 173.768 114.221 174.113 114.062C174.468 113.894 174.776 113.675 175.037 113.404C175.308 113.133 175.467 112.83 175.513 112.494ZM178.552 111.99V107.706H179.504V111.822C179.504 113.474 180.069 114.3 181.198 114.3C181.758 114.3 182.281 114.118 182.766 113.754C183.261 113.39 183.616 112.905 183.83 112.298V107.706H184.782V113.852C184.782 114.104 184.894 114.235 185.118 114.244V115C185.006 115.019 184.918 115.028 184.852 115.028C184.796 115.028 184.736 115.028 184.67 115.028C184.474 115.009 184.306 114.935 184.166 114.804C184.036 114.673 183.97 114.515 183.97 114.328L183.942 113.348C183.625 113.917 183.191 114.361 182.64 114.678C182.099 114.986 181.511 115.14 180.876 115.14C179.327 115.14 178.552 114.09 178.552 111.99ZM190.099 115.14C189.389 115.14 188.759 114.967 188.209 114.622C187.658 114.267 187.224 113.805 186.907 113.236C186.589 112.657 186.431 112.023 186.431 111.332C186.431 110.641 186.585 110.016 186.893 109.456C187.201 108.887 187.63 108.434 188.181 108.098C188.731 107.753 189.366 107.58 190.085 107.58C190.766 107.58 191.363 107.739 191.877 108.056C192.399 108.364 192.791 108.784 193.053 109.316L192.129 109.61C191.923 109.237 191.634 108.947 191.261 108.742C190.897 108.527 190.491 108.42 190.043 108.42C189.548 108.42 189.1 108.546 188.699 108.798C188.307 109.05 187.989 109.4 187.747 109.848C187.513 110.287 187.397 110.781 187.397 111.332C187.397 111.883 187.518 112.382 187.761 112.83C188.003 113.278 188.325 113.637 188.727 113.908C189.128 114.169 189.571 114.3 190.057 114.3C190.374 114.3 190.682 114.244 190.981 114.132C191.279 114.02 191.536 113.871 191.751 113.684C191.965 113.488 192.11 113.278 192.185 113.054L193.123 113.334C192.992 113.679 192.777 113.992 192.479 114.272C192.18 114.543 191.825 114.757 191.415 114.916C191.004 115.065 190.565 115.14 190.099 115.14ZM198.118 114.65C198.006 114.697 197.801 114.781 197.502 114.902C197.204 115.023 196.858 115.084 196.466 115.084C196.056 115.084 195.696 114.967 195.388 114.734C195.08 114.501 194.926 114.151 194.926 113.684V108.462H193.918V107.706H194.926V105.242H195.878V107.706H197.558V108.462H195.878V113.418C195.897 113.689 195.99 113.889 196.158 114.02C196.336 114.141 196.536 114.202 196.76 114.202C197.022 114.202 197.255 114.16 197.46 114.076C197.675 113.983 197.81 113.917 197.866 113.88L198.118 114.65ZM202.293 115.14C201.593 115.14 200.967 114.967 200.417 114.622C199.875 114.277 199.451 113.819 199.143 113.25C198.835 112.671 198.681 112.046 198.681 111.374C198.681 110.693 198.835 110.067 199.143 109.498C199.46 108.919 199.889 108.457 200.431 108.112C200.981 107.757 201.602 107.58 202.293 107.58C202.993 107.58 203.613 107.757 204.155 108.112C204.705 108.457 205.135 108.919 205.443 109.498C205.76 110.067 205.919 110.693 205.919 111.374C205.919 112.046 205.765 112.671 205.457 113.25C205.149 113.819 204.719 114.277 204.169 114.622C203.627 114.967 203.002 115.14 202.293 115.14ZM199.647 111.388C199.647 111.929 199.763 112.424 199.997 112.872C200.239 113.311 200.561 113.661 200.963 113.922C201.364 114.174 201.807 114.3 202.293 114.3C202.778 114.3 203.221 114.169 203.623 113.908C204.024 113.647 204.346 113.292 204.589 112.844C204.831 112.396 204.953 111.901 204.953 111.36C204.953 110.819 204.831 110.324 204.589 109.876C204.346 109.428 204.024 109.073 203.623 108.812C203.221 108.551 202.778 108.42 202.293 108.42C201.817 108.42 201.378 108.555 200.977 108.826C200.575 109.087 200.253 109.442 200.011 109.89C199.768 110.338 199.647 110.837 199.647 111.388Z" fill="#6B6B6B"/>
<rect x="0.5" y="0.5" width="253" height="151" stroke="#C8C8C8" stroke-dasharray="6 6"/>
</svg>
